<?xml version="1.0" encoding="UTF-8"?>
<svg width="28px" height="32px" viewBox="0 0 28 32" version="1.1" xmlns="http://www.w3.org/2000/svg" xmlns:xlink="http://www.w3.org/1999/xlink">
    <!-- Generator: sketchtool 55.2 (78181) - https://sketchapp.com -->
    <title>E972FC9B-DB5C-47B6-8F75-4D2A5BF8574B</title>
    <desc>Created with sketchtool.</desc>
    <g id="UI" stroke="none" stroke-width="1" fill="none" fill-rule="evenodd">
        <g id="Ui-kit-intranet-1" transform="translate(-438.000000, -3343.000000)" fill="#0E0C5A" fill-rule="nonzero">
            <g id="data" transform="translate(438.000000, 3343.000000)">
                <path d="M14,0 C7.256,0 0,2.033 0,6.5 L0,25.5 C0,29.965 7.256,32 14,32 C20.743,32 28,29.965 28,25.5 L28,6.5 C28,2.033 20.742,0 14,0 Z M26,25.5 C26,27.984 20.627,30 14,30 C7.372,30 2,27.984 2,25.5 L2,21.764 C4.066,23.893 9.05,25 14,25 C18.95,25 23.934,23.893 26,21.764 L26,25.5 Z M26,19.5 L25.996,19.5 C25.996,19.51 26,19.521 26,19.531 C26,22 20.627,24 14,24 C7.373,24 2,22 2,19.531 C2,19.521 2.004,19.51 2.004,19.5 L2,19.5 L2,15.764 C4.066,17.893 9.05,19 14,19 C18.95,19 23.934,17.893 26,15.764 L26,19.5 Z M26,13.5 L25.996,13.5 C25.996,13.51 26,13.521 26,13.531 C26,16 20.627,18 14,18 C7.373,18 2,16 2,13.531 C2,13.521 2.004,13.51 2.004,13.5 L2,13.5 L2,10.064 C4.621,12.061 9.425,13 14,13 C18.575,13 23.379,12.061 26,10.064 L26,13.5 Z M14,11 C7.372,11 2,8.984 2,6.5 C2,4.014 7.372,2 14,2 C20.627,2 26,4.014 26,6.5 C26,8.984 20.627,11 14,11 Z" id="Shape"></path>
                <circle id="Oval" cx="23" cy="26" r="1"></circle>
                <circle id="Oval" cx="23" cy="20" r="1"></circle>
                <circle id="Oval" cx="23" cy="14" r="1"></circle>
            </g>
        </g>
    </g>
</svg>