<?xml version="1.0" encoding="UTF-8"?>
<svg width="32px" height="28px" viewBox="0 0 32 28" version="1.1" xmlns="http://www.w3.org/2000/svg" xmlns:xlink="http://www.w3.org/1999/xlink">
    <!-- Generator: sketchtool 55.2 (78181) - https://sketchapp.com -->
    <title>7AB2F90C-E58E-459A-A934-2DAA32C0843C</title>
    <desc>Created with sketchtool.</desc>
    <g id="UI" stroke="none" stroke-width="1" fill="none" fill-rule="evenodd">
        <g id="Ui-kit-intranet-1" transform="translate(-270.000000, -3442.000000)" fill="#0E0C5A" fill-rule="nonzero">
            <g id="stack" transform="translate(270.000000, 3442.000000)">
                <path d="M31.924,16.455 L27.922,1.449 C27.68,0.596 26.889,0 26,0 L16,0 L6,0 C5.11,0 4.32,0.596 4.078,1.449 L0.076,16.455 C0.025,16.637 0,16.82 0,17 L0,24 C0,26.209 1.791,28 4,28 L28,28 C30.209,28 32,26.209 32,24 L32,17 C32,16.82 31.975,16.637 31.924,16.455 Z M30,24 C30,25.102 29.102,26 28,26 L4,26 C2.897,26 2,25.102 2,24 L2,17 L6.001,1.999 L25.998,1.999 L30,17 L30,24 Z" id="Shape"></path>
                <path d="M23.742,4 L8.258,4 C7.805,4 7.408,4.305 7.291,4.743 L3.846,16.743 C3.767,17.044 3.83,17.364 4.02,17.61 C4.21,17.856 4.502,18 4.812,18 L7.718,18 L8.859,18 L9.38,18 L10.827,20.895 C11.167,21.572 11.859,22 12.617,22 L19.383,22 C20.141,22 20.832,21.572 21.172,20.895 L22.619,18 L23.14,18 L24.281,18 L27.187,18 C27.498,18 27.791,17.855 27.98,17.609 C28.169,17.363 28.232,17.043 28.154,16.742 L24.709,4.742 C24.592,4.304 24.195,4 23.742,4 Z M24.281,16 L22.619,16 C21.857,16 21.172,16.422 20.83,17.105 L19.383,20 L12.617,20 L11.17,17.105 C10.828,16.422 10.143,16 9.381,16 L7.719,16 L5.334,16 L8.258,5 L23.742,5 L26.666,16 L24.281,16 Z" id="Shape"></path>
            </g>
        </g>
    </g>
</svg>